# xmcd
#
# Track frame offsets: 
#        150
#        18337
#        36079
#        59029
#        72883
#        94791
#        110182
#        125665
#        144324
#        160122
#        176983
#        194817
#
# Disc length: 2859 seconds
#
# Revision: 0
# Processed by: cddbd v1.5.2PL0 Copyright (c) Steve Scherf et al.
# Submitted via: ExactAudioCopy v1.0b1
#
DISCID=b70b290c
DTITLE=Allen Dobb - Rosetown
DYEAR=2005
DGENRE=Country
TTITLE0=Train Dream
TTITLE1=Barbed Wire Love
TTITLE2=Hired Hand
TTITLE3=Song for This Time
TTITLE4=Moonlight Stroll (Song for Neil Stonechild)
TTITLE5=Rosetown
TTITLE6=Screendoor Kiss
TTITLE7=Next Year Country
TTITLE8=Beyond the Blues
TTITLE9=Reasons Why
TTITLE10=Maggie O'Donnell
TTITLE11=Magnetic North
EXTD=
EXTT0=
EXTT1=
EXTT2=
EXTT3=
EXTT4=
EXTT5=
EXTT6=
EXTT7=
EXTT8=
EXTT9=
EXTT10=
EXTT11=
PLAYORDER=
